  <svg width="22" height="23" viewBox="0 0 22 23" fill="none" xmlns="http://www.w3.org/2000/svg">
                            <path d="M7.79183 17.9166H7.3335C3.66683 17.9166 1.8335 17 1.8335 12.4166V7.83331C1.8335 4.16665 3.66683 2.33331 7.3335 2.33331H14.6668C18.3335 2.33331 20.1668 4.16665 20.1668 7.83331V12.4166C20.1668 16.0833 18.3335 17.9166 14.6668 17.9166H14.2085C13.9243 17.9166 13.6493 18.0541 13.4752 18.2833L12.1002 20.1166C11.4952 20.9233 10.5052 20.9233 9.90016 20.1166L8.52516 18.2833C8.3785 18.0816 8.03933 17.9166 7.79183 17.9166Z" stroke="currentColor" stroke-width="2" stroke-miterlimit="10" stroke-linecap="round" stroke-linejoin="round"/>
                            <path d="M14.6633 10.5833H14.6715" stroke="currentColor" stroke-width="2" stroke-linecap="round" stroke-linejoin="round"/>
                            <path d="M10.9958 10.5833H11.004" stroke="currentColor" stroke-width="2" stroke-linecap="round" stroke-linejoin="round"/>
                            <path d="M7.3283 10.5833H7.33653" stroke="currentColor" stroke-width="2" stroke-linecap="round" stroke-linejoin="round"/>
                        </svg> 