<svg width="22" height="23" viewBox="0 0 22 23" fill="none" xmlns="http://www.w3.org/2000/svg">
                            <path d="M2.90576 7.32001L10.9999 12.0042L19.0391 7.34748" stroke="currentColor" stroke-width="2" stroke-linecap="round" stroke-linejoin="round"/>
                            <path d="M11 20.3092V11.995" stroke="currentColor" stroke-width="2" stroke-linecap="round" stroke-linejoin="round"/>
                            <path d="M9.10256 2.77331L4.20757 5.49584C3.0984 6.11001 2.19092 7.64999 2.19092 8.91499V14.0942C2.19092 15.3592 3.0984 16.8992 4.20757 17.5133L9.10256 20.2359C10.1476 20.8134 11.8617 20.8134 12.9067 20.2359L17.8017 17.5133C18.9109 16.8992 19.8184 15.3592 19.8184 14.0942V8.91499C19.8184 7.64999 18.9109 6.11001 17.8017 5.49584L12.9067 2.77331C11.8526 2.18665 10.1476 2.18665 9.10256 2.77331Z" stroke="currentColor" stroke-width="2" stroke-linecap="round" stroke-linejoin="round"/>
                            <path d="M15.5834 12.6366V9.28167L6.88428 4.2583" stroke="currentColor" stroke-width="1.5" stroke-linecap="round" stroke-linejoin="round"/>
                        </svg>  